<svg width="32.000000" height="32.000000" viewBox="0 0 32 32" fill="none" xmlns="http://www.w3.org/2000/svg" xmlns:xlink="http://www.w3.org/1999/xlink">
	<desc>
			Created with Pixso.
	</desc>
	<defs>
		<clipPath id="clip5_7">
			<rect id="Group 6 2" width="32.000000" height="32.000000" fill="white" fill-opacity="0"/>
		</clipPath>
	</defs>
	<rect id="Group 6 2" width="32.000000" height="32.000000" fill="#FFFFFF" fill-opacity="0"/>
	<g clip-path="url(#clip5_7)">
		<path id="Vector" d="M10.38 31L21.19 20.14L22.43 21.38L12.28 31.57C11.63 31.42 10.99 31.23 10.38 31Z" fill="#292929" fill-opacity="1.000000" fill-rule="evenodd"/>
		<path id="Vector" d="M22.98 30.35C21.8 30.94 20.53 31.38 19.2 31.66L25.92 24.91L27.16 26.15L22.98 30.35Z" fill="#292929" fill-opacity="1.000000" fill-rule="evenodd"/>
		<path id="Vector" d="M10.08 28.96L8.76 30.28C7.39 29.59 6.13 28.7 5 27.64C2.95 25.7 1.44 23.24 0.65 20.52C-0.15 17.8 -0.22 14.92 0.46 12.16C1.14 9.41 2.53 6.89 4.5 4.85C6.46 2.82 8.93 1.34 11.65 0.58C14.37 -0.18 17.25 -0.2 19.98 0.52C22.71 1.24 25.2 2.68 27.2 4.68L25.96 5.93C24.18 4.14 21.96 2.86 19.53 2.22C17.1 1.58 14.55 1.6 12.12 2.28C9.7 2.95 7.5 4.27 5.75 6.08C4 7.89 2.76 10.13 2.16 12.58C1.56 15.03 1.62 17.6 2.33 20.02C3.04 22.44 4.38 24.63 6.21 26.36C7.35 27.44 8.66 28.32 10.08 28.96Z" fill="#292929" fill-opacity="1.000000" fill-rule="evenodd"/>
		<path id="Vector" d="M15.22 23.8L13.7 25.33C12.08 24.94 10.59 24.13 9.37 22.98C8.14 21.82 7.24 20.34 6.76 18.71C6.28 17.08 6.24 15.35 6.65 13.7C7.05 12.04 7.89 10.53 9.07 9.31C10.25 8.09 11.73 7.2 13.36 6.75C15 6.29 16.72 6.28 18.36 6.71C20 7.14 21.49 8 22.69 9.21L21.45 10.45C20.47 9.47 19.25 8.77 17.91 8.41C16.58 8.06 15.17 8.07 13.84 8.44C12.5 8.82 11.29 9.54 10.33 10.53C9.36 11.53 8.68 12.77 8.35 14.12C8.02 15.47 8.05 16.88 8.44 18.21C8.83 19.54 9.57 20.75 10.58 21.7C11.58 22.65 12.83 23.32 14.17 23.63C14.52 23.71 14.87 23.77 15.22 23.8Z" fill="#292929" fill-opacity="1.000000" fill-rule="evenodd"/>
	</g>
</svg>
