<svg width="68.000000" height="64.000000" viewBox="0 0 68 64" fill="none" xmlns="http://www.w3.org/2000/svg" xmlns:xlink="http://www.w3.org/1999/xlink">
	<desc>
			Created with Pixso.
	</desc>
	<defs>
		<clipPath id="clip8_2">
			<rect id="Group 6 2" width="68.000000" height="64.000000" fill="white" fill-opacity="0"/>
		</clipPath>
	</defs>
	<rect id="Group 6 2" width="68.000000" height="64.000000" fill="#FFFFFF" fill-opacity="0"/>
	<g clip-path="url(#clip8_2)">
		<path id="Vector" d="M22.05 62L45.04 40.28L47.67 42.77L26.1 63.15C24.72 62.84 23.37 62.46 22.05 62Z" fill="#FFFFFF" fill-opacity="1.000000" fill-rule="evenodd"/>
		<path id="Vector" d="M48.84 60.7C46.33 61.88 43.63 62.77 40.8 63.32L55.09 49.82L57.73 52.31L48.84 60.7Z" fill="#FFFFFF" fill-opacity="1.000000" fill-rule="evenodd"/>
		<path id="Vector" d="M21.42 57.93L18.62 60.57C15.72 59.19 13.03 57.41 10.64 55.29C6.27 51.4 3.07 46.48 1.38 41.04C-0.32 35.6 -0.46 29.84 0.98 24.33C2.42 18.82 5.38 13.78 9.56 9.71C13.74 5.64 18.99 2.69 24.77 1.17C30.55 -0.35 36.66 -0.4 42.46 1.04C48.27 2.49 53.56 5.36 57.8 9.37L55.17 11.86C51.39 8.29 46.68 5.73 41.51 4.45C36.35 3.17 30.91 3.21 25.77 4.56C20.62 5.91 15.95 8.54 12.23 12.16C8.51 15.78 5.88 20.27 4.6 25.17C3.32 30.07 3.44 35.21 4.95 40.05C6.46 44.89 9.31 49.26 13.19 52.73C15.62 54.89 18.4 56.64 21.42 57.93Z" fill="#FFFFFF" fill-opacity="1.000000" fill-rule="evenodd"/>
		<path id="Vector" d="M32.34 47.61L29.11 50.66C25.67 49.88 22.5 48.26 19.93 45.97C17.31 43.64 15.39 40.69 14.37 37.42C13.35 34.16 13.27 30.7 14.13 27.4C14.99 24.09 16.77 21.06 19.28 18.62C21.79 16.18 24.94 14.41 28.41 13.5C31.87 12.59 35.54 12.56 39.02 13.42C42.5 14.29 45.68 16.01 48.23 18.42L45.59 20.91C43.51 18.94 40.92 17.54 38.07 16.83C35.23 16.12 32.24 16.14 29.41 16.89C26.57 17.64 24 19.08 21.95 21.07C19.9 23.07 18.45 25.54 17.75 28.24C17.04 30.94 17.11 33.76 17.94 36.43C18.77 39.09 20.34 41.5 22.48 43.41C24.62 45.31 27.26 46.65 30.12 47.27C30.86 47.43 31.6 47.54 32.34 47.61Z" fill="#FFFFFF" fill-opacity="1.000000" fill-rule="evenodd"/>
	</g>
</svg>
